<svg xmlns="http://www.w3.org/2000/svg" viewBox="0 0 64 64" fill="none">
  <defs>
    <linearGradient id="g" x1="0" y1="0" x2="64" y2="64" gradientUnits="userSpaceOnUse">
      <stop offset="0%" stop-color="#3b82f6"/>
      <stop offset="100%" stop-color="#7c3aed"/>
    </linearGradient>
  </defs>
  <!-- Open book -->
  <path d="M6 14c0-2 1-3 3-3h14c4 0 9 1 9 5v34c0-3-4-4-8-4H10c-2 0-4-1-4-3V14z" fill="url(#g)" opacity="0.85"/>
  <path d="M58 14c0-2-1-3-3-3H41c-4 0-9 1-9 5v34c0-3 4-4 8-4h14c2 0 4-1 4-3V14z" fill="url(#g)"/>
  <!-- Bar chart bars (ascending left to right) -->
  <rect x="17" y="32" width="5" height="10" rx="1.5" fill="white" opacity="0.95"/>
  <rect x="25" y="26" width="5" height="16" rx="1.5" fill="white" opacity="0.95"/>
  <rect x="34" y="20" width="5" height="22" rx="1.5" fill="white" opacity="0.95"/>
  <rect x="42" y="14" width="5" height="28" rx="1.5" fill="white" opacity="0.95"/>
</svg>
